<?xml version="1.0" encoding="UTF-8" standalone="no"?>
<!-- Created with Inkscape (http://www.inkscape.org/) -->

<svg
   width="51.245064mm"
   height="39.864452mm"
   viewBox="0 0 51.245064 39.864452"
   version="1.1"
   id="svg1"
   xmlns:xlink="http://www.w3.org/1999/xlink"
   xmlns="http://www.w3.org/2000/svg"
   xmlns:svg="http://www.w3.org/2000/svg">
  <defs
     id="defs1">
    <linearGradient
       xlink:href="#linearGradient56"
       id="linearGradient53"
       gradientUnits="userSpaceOnUse"
       gradientTransform="matrix(-0.00593663,-0.02551452,-0.02743183,0.00668802,148.48352,177.266)"
       x1="702.49878"
       y1="1077.6643"
       x2="1983.7037"
       y2="685.96069" />
    <linearGradient
       id="linearGradient56"
       gradientUnits="userSpaceOnUse"
       x1="0"
       y1="1333.33"
       x2="2666.6599"
       y2="1333.33">
      <stop
         offset="0"
         style="stop-color:#0bd6ab;stop-opacity:1;"
         id="stop55" />
      <stop
         offset="0.42525673"
         style="stop-color:#6178ff;stop-opacity:1;"
         id="stop90" />
      <stop
         offset="0.9761405"
         style="stop-color:#0bd6ab;stop-opacity:1;"
         id="stop58" />
    </linearGradient>
  </defs>
  <g
     id="layer1"
     transform="translate(-79.374984,-128.58746)">
    <path
       class="fil2"
       d="m 87.508289,155.03253 0.504685,2.16872 c 0.04155,0.17863 0.159463,0.31162 0.292921,0.38695 1.944999,1.00871 3.885482,1.74891 5.821475,2.22055 0.406369,0.25143 2.030338,1.50018 0.820034,3.89824 -0.08597,0.12883 -0.08368,0.2631 -0.05468,0.39059 0.04155,0.17859 0.165388,0.33712 0.32627,0.40574 0.321834,0.13729 0.69406,-0.008 0.854063,-0.31606 0.859,-1.66538 0.660047,-3.01885 0.11484,-3.99141 1.049223,0.14863 2.080589,0.22074 3.121544,0.20959 0.484957,0.34013 1.905079,1.58467 0.725859,3.86732 -0.05852,0.12211 -0.08366,0.26305 -0.05295,0.3908 0.04155,0.1786 0.15944,0.31167 0.35375,0.39907 0.32179,0.13724 0.69397,-0.008 0.85405,-0.31607 0.99758,-1.94183 0.55908,-3.45266 -0.18998,-4.42941 1.16035,-0.12112 2.33032,-0.32545 3.47651,-0.63185 0.5576,0.40324 1.80128,1.63692 0.68659,3.82295 -0.086,0.12882 -0.0837,0.26307 -0.0547,0.39056 0.0415,0.17857 0.15949,0.31164 0.32629,0.40577 0.31589,0.11169 0.69399,-0.008 0.85408,-0.31609 1.09318,-2.15384 0.45451,-3.77765 -0.40429,-4.72763 0.64647,-0.2115 1.30854,-0.48076 1.93724,-0.76887 0.21351,-0.079 0.42107,-0.18354 0.6346,-0.26258 0.0483,0.5814 0.11811,1.13056 0.23091,1.61539 0.33837,1.45427 1.00148,2.55981 1.96178,3.32332 1.31176,1.02825 2.83919,1.11422 3.61545,1.08672 1.67641,3.71644 6.22087,4.68456 9.856,3.98703 4.07404,-0.80453 6.49492,-4.17971 6.49941,-7.52411 -0.76212,-3.29064 -0.23013,-0.2046 -5.9797,0.9254 l -5.12597,-1.19988 8.19066,-1.83793 c 0.17421,-0.12336 0.85914,0.0623 0.87247,-0.12968 0.0407,-0.1987 -0.63911,-0.73605 -0.81186,-0.8557 -2.26395,-1.63195 -6.27513,-1.67856 -9.47115,-0.0905 -2.49694,1.22882 -4.00607,3.21454 -4.22063,5.53167 -0.61172,-0.0127 -1.68235,-0.12908 -2.60338,-0.84823 -1.1331,-0.88309 -1.72656,-2.43701 -1.77446,-4.63625 2.59849,-1.41537 4.77277,-3.15877 6.41025,-4.7174 8.62777,1.69813 10.54202,-2.40837 10.61616,-2.58825 0.13265,-0.30193 -0.005,-0.64577 -0.34863,-0.7508 -0.31587,-0.11171 -0.68804,0.0329 -0.82068,0.33492 -0.0801,0.1543 -1.56753,3.10531 -8.41197,1.96996 0.18976,-0.18103 0.35209,-0.35545 0.51444,-0.52985 -0.87126,-0.38074 -1.50607,-1.11571 -1.72572,-2.05974 -0.21378,-0.91849 0.0292,-1.86748 0.63934,-2.6094 -0.22173,-0.0808 -0.44346,-0.16152 -0.6926,-0.2356 5.71341,-4.22396 8.34302,-2.14189 8.37638,-2.12306 0.25137,0.20832 0.65321,0.19122 0.88005,-0.0798 0.26021,-0.25218 0.23195,-0.62269 -0.0194,-0.8311 -0.14534,-0.12628 -3.66254,-2.90862 -10.61612,2.58829 -2.14805,-0.63566 -4.82923,-1.19522 -7.79943,-1.25297 -0.92573,-1.9852 0.29061,-4.96311 2.59591,-6.15417 2.62483,-1.00034 2.56101,-1.24462 3.10145,-1.53813 1.21194,1.96932 3.43345,3.0454 6.20349,2.99019 3.55219,-0.0572 7.11815,-1.92417 8.41438,-4.45108 0.10153,-0.18656 0.11487,-0.37854 -0.009,-0.53708 -0.097,-0.16486 -5.02322,1.13461 -5.23303,1.10499 l -6.69182,-0.44877 6.14767,-2.47447 c 2.21821,-0.71319 7.08658,-0.30106 6.93902,-0.56166 -0.75918,-2.79948 -5.62215,-4.88087 -9.60714,-3.69361 -3.55791,1.0292 -6.65915,2.82688 -6.5189,6.91788 -0.70506,0.33366 -1.63014,0.60054 -4.2191,2.09612 -1.88487,1.24454 -2.36141,2.89178 -2.72526,4.9213 -0.0925,0.5157 -0.005,1.27654 0.20844,1.8178 -0.23134,0.002 -0.45675,0.0305 -0.68804,0.0329 -0.68213,0.0585 -1.39167,0.12365 -2.0619,0.23309 0.34824,-1.24426 0.19737,-3.01391 -1.72102,-4.40661 -0.27879,-0.20158 -0.67473,-0.15896 -0.901555,0.11201 -0.107474,0.16099 -0.154126,0.33421 -0.112638,0.51273 0.02975,0.12758 0.08679,0.24847 0.220253,0.32378 1.95767,1.43698 1.36342,3.11874 1.07064,3.72935 -1.158277,0.25452 -2.298364,0.58728 -3.381514,1.04011 0.238574,-1.21755 -0.03538,-2.76846 -1.780977,-4.04143 -0.278831,-0.20166 -0.674763,-0.15908 -0.901545,0.11191 -0.140889,0.14221 -0.181594,0.34088 -0.140031,0.51943 0.02962,0.12757 0.11422,0.2418 0.220226,0.3238 2.057816,1.49346 1.338253,3.25966 1.055132,3.78704 -0.934118,0.47036 -1.82302,1.01067 -2.694092,1.62748 0.05835,-1.11967 -0.360057,-2.41969 -1.866137,-3.53543 -0.278831,-0.20158 -0.668854,-0.13343 -0.895637,0.1375 -0.11341,0.13552 -0.154115,0.33415 -0.118526,0.48725 0.02962,0.12759 0.08681,0.24845 0.220243,0.32375 2.142361,1.6077 1.242612,3.4717 0.990661,3.88367 -1.520478,1.31437 -2.926681,2.87043 -4.218633,4.66838 -0.08594,0.12881 -0.132654,0.30195 -0.09119,0.48052 z m 29.162541,-5.97756 c 0.30277,1.30126 1.67684,2.09865 3.07582,1.75756 1.37159,-0.33437 2.27443,-1.68694 1.97166,-2.98817 -0.29684,-1.27573 -1.69834,-2.06643 -3.06993,-1.73204 -1.399,0.34105 -2.27438,1.68693 -1.97755,2.96265 z m -34.89516,13.98088 c 0.02386,0.10202 0.06899,0.17191 0.141633,0.2351 0.11796,0.13301 0.284778,0.22717 0.482755,0.20584 3.469886,-0.0371 5.206537,-2.91408 6.213738,-4.93906 -0.227619,-0.10631 -0.455303,-0.2126 -0.688858,-0.34437 -0.327771,-0.16273 -0.542109,-0.46103 -0.625208,-0.81819 l -0.504637,-2.16878 c -0.0831,-0.35716 -0.02307,-0.72229 0.191884,-1.04431 0.15642,-0.19991 0.312812,-0.39981 0.463306,-0.62523 -1.78491,-1.3173 -4.602002,-3.08404 -7.721674,-1.54157 -0.180104,0.0979 -0.293536,0.23334 -0.334252,0.43199 -0.0468,0.17313 -0.0051,0.35177 0.08536,0.49149 l 3.532295,4.34241 -1.234821,5.53172 c -0.0096,0.0832 -0.01925,0.16645 -0.0016,0.243 z m 22.49601,-10.95791 c -0.0416,-0.17857 0.0665,-0.33948 0.25789,-0.38642 l 7.73579,-1.88599 c 0.19202,-0.0469 0.38631,0.0407 0.42785,0.21919 0.0416,0.1786 -0.0874,0.37184 -0.27941,0.41864 l -7.73581,1.88602 c -0.19198,0.0469 -0.36483,-0.0728 -0.40631,-0.25144 z m -12.64362,0.60208 c -0.02385,-0.10203 0.0133,-0.19196 0.07776,-0.28855 0.140856,-0.14217 0.366258,-0.17021 0.505662,-0.0694 0.981806,0.73129 1.664113,1.6704 1.745167,2.89086 0.05651,0.74115 -0.149485,1.60024 -0.573414,2.26978 -0.107512,0.16105 -0.326961,0.21453 -0.493747,0.12041 -0.166861,-0.0942 -0.214371,-0.29825 -0.106875,-0.45929 0.300988,-0.45082 0.450624,-1.05351 0.480914,-1.54623 0.05237,-1.1452 -0.596521,-2.06544 -1.505686,-2.73352 -0.06676,-0.0377 -0.111937,-0.10753 -0.129783,-0.18406 z m 6.242134,-3.57093 c -0.02976,-0.12758 0.0015,-0.24309 0.09936,-0.32079 0.140813,-0.14218 0.372107,-0.14469 0.517501,-0.0184 1.630705,1.65151 2.623175,3.67436 2.639925,5.98897 -0.0176,0.921 -0.19528,2.15065 -0.57772,2.99882 -0.08,0.15433 -0.28765,0.25886 -0.47594,0.19695 -0.194286,-0.0875 -0.269204,-0.28488 -0.189186,-0.43922 0.345396,-0.75824 0.507496,-1.93018 0.499966,-2.71023 -0.008,-2.15485 -0.910506,-4.03797 -2.42338,-5.55645 -0.06672,-0.0377 -0.07862,-0.0887 -0.09049,-0.13973 z m -3.207039,1.91425 c -0.02385,-0.10204 0.02884,-0.24968 0.126739,-0.3274 0.146733,-0.11672 0.350635,-0.11253 0.496003,0.0138 1.243627,1.23362 2.007619,2.77291 1.982067,4.53168 0.01715,0.69683 -0.116146,1.61907 -0.430275,2.26189 -0.07409,0.17983 -0.28767,0.25887 -0.448573,0.19028 -0.188296,-0.062 -0.263246,-0.25937 -0.189116,-0.43924 0.271249,-0.57843 0.36746,-1.41074 0.367827,-2.03101 -0.01521,-1.5601 -0.710119,-2.92753 -1.814391,-4.06028 -0.0393,-0.0444 -0.07858,-0.0887 -0.09045,-0.13974 z"
       id="path3-3"
       style="fill:url(#linearGradient53);stroke-width:0.027196" />
  </g>
</svg>
